<?xml version="1.0" standalone="no"?>
<!DOCTYPE svg PUBLIC "-//W3C//DTD SVG 20010904//EN"
 "http://www.w3.org/TR/2001/REC-SVG-20010904/DTD/svg10.dtd">
<svg version="1.0" xmlns="http://www.w3.org/2000/svg"
 width="260.000000pt" height="260.000000pt" viewBox="0 0 260.000000 260.000000"
 preserveAspectRatio="xMidYMid meet">
<metadata>
Created by potrace 1.14, written by Peter Selinger 2001-2017
</metadata>
<g transform="translate(0.000000,260.000000) scale(0.100000,-0.100000)"
fill="#000000" stroke="none">
<path d="M1371 1718 c-40 -29 -108 -78 -151 -108 -42 -31 -135 -99 -206 -151
-71 -52 -158 -116 -194 -142 -344 -246 -370 -268 -370 -312 0 -38 47 -94 85
-101 39 -7 48 -3 160 81 39 29 121 88 184 131 62 43 175 125 251 181 76 56
191 140 257 186 191 136 219 183 149 253 -49 49 -77 45 -165 -18z"/>
<path d="M1573 1515 c-33 -33 -35 -39 -31 -80 4 -33 16 -58 44 -92 116 -140
212 -259 279 -344 73 -93 93 -109 143 -109 60 0 114 66 97 120 -11 33 -397
515 -425 530 -36 19 -71 11 -107 -25z"/>
<path d="M1317 1248 c-53 -40 -131 -98 -173 -128 -41 -30 -80 -63 -85 -72 -5
-9 -9 -37 -9 -61 0 -38 5 -49 31 -71 33 -28 84 -34 122 -14 12 6 47 30 77 53
30 22 89 67 130 98 120 90 140 111 140 150 0 54 -63 117 -117 117 -10 0 -62
-33 -116 -72z"/>
<path d="M1572 1068 c-35 -17 -65 -73 -57 -108 8 -38 68 -90 103 -90 75 0 131
84 98 148 -27 53 -91 75 -144 50z"/>
</g>
</svg>
